<svg xmlns="http://www.w3.org/2000/svg" width="312" height="312" viewBox="0 0 312 312" version="1.1">
	<path d="M 142.269 12.693 C 143.242 12.947, 144.592 12.930, 145.269 12.656 C 145.946 12.382, 145.150 12.175, 143.500 12.195 C 141.850 12.215, 141.296 12.439, 142.269 12.693 M 157.813 12.683 C 158.534 12.972, 159.397 12.936, 159.729 12.604 C 160.061 12.272, 159.471 12.036, 158.417 12.079 C 157.252 12.127, 157.015 12.364, 157.813 12.683 M 167 13.068 C 174.509 13.999, 197.058 21.268, 208 26.285 C 216.014 29.960, 222.195 33.668, 228.360 38.500 C 244.201 50.916, 249.036 54.970, 251.915 58.250 C 255.318 62.126, 258 63.118, 258 60.500 C 258 58.156, 260.198 58.733, 262.764 61.750 C 278.744 80.540, 286.212 94.738, 292.541 118.361 C 293.847 123.234, 295.567 128.217, 296.365 129.434 C 297.162 130.651, 298.025 132.514, 298.281 133.573 C 299.398 138.182, 297.925 128.842, 296.536 122.509 C 290.318 94.146, 274.765 67.763, 252.727 48.194 C 241.136 37.901, 233.809 32.851, 221.344 26.562 C 202.612 17.113, 183.009 11.847, 167.619 12.131 L 160.500 12.263 167 13.068 M 130.829 13.504 C 130.552 13.781, 127.665 14.484, 124.413 15.067 C 102.417 19.006, 74.005 34.123, 55 52 C 52.064 54.761, 53.455 53.936, 59 49.624 C 81.790 31.907, 102.972 21.186, 124.500 16.472 C 128.900 15.509, 133.850 14.374, 135.500 13.951 L 138.500 13.180 134.917 13.090 C 132.946 13.041, 131.107 13.227, 130.829 13.504 M 82.256 61.645 C 78.429 63.532, 75.446 68.001, 74.458 73.330 C 73.703 77.399, 73.571 77.500, 67.729 78.471 C 62.937 79.268, 57.224 84.240, 54.798 89.724 C 52.402 95.141, 51.448 105.364, 52.862 110.473 C 53.808 113.890, 53.668 115.054, 51.864 118.780 C 50.072 122.482, 49.826 124.477, 50.176 132.468 C 50.550 141.031, 50.939 142.537, 54.781 150.290 C 58.856 158.514, 66.999 168.985, 69.343 169.015 C 69.979 169.023, 74.505 171.048, 79.400 173.515 C 84.294 175.982, 88.409 178, 88.543 178 C 88.677 178, 88.326 176.181, 87.761 173.958 C 86.962 170.808, 86.030 169.621, 83.537 168.580 C 76.627 165.693, 63.680 149.944, 65.627 146.794 C 66.784 144.923, 69.100 146.276, 70.951 149.904 C 73.105 154.127, 82.200 164, 83.935 164 C 84.563 164, 85 161.678, 85 158.346 C 85 153, 84.785 152.508, 81.056 149.316 C 78.888 147.460, 75.749 143.557, 74.082 140.644 C 68.456 130.810, 66.336 114.342, 70.807 115.200 C 72.079 115.445, 72.534 116.668, 72.639 120.124 C 72.904 128.925, 78.145 141.616, 83.243 145.801 C 84.634 146.943, 85.023 146.433, 86.414 141.647 C 88.409 134.785, 88.399 134.378, 86.141 131.154 C 80.155 122.609, 78.445 103.163, 82.831 93.512 C 86.455 85.538, 93.256 79.656, 95.851 82.251 C 97.606 84.006, 97.288 84.659, 93.548 86.970 C 91.311 88.353, 89.112 91.109, 87.298 94.802 C 84.832 99.824, 84.510 101.568, 84.587 109.500 C 84.658 116.945, 85.124 119.494, 87.282 124.250 C 88.716 127.412, 90.280 130, 90.757 130 C 91.234 130, 92.590 128.694, 93.770 127.097 C 95.563 124.672, 95.758 123.645, 94.958 120.854 C 93.328 115.169, 93.852 105.923, 96.084 101 C 98.826 94.952, 101.542 92.187, 107.500 89.377 C 113.140 86.718, 116.801 86.482, 122.250 88.426 L 126 89.764 126 85.250 C 126 82.533, 125.231 79.495, 124.069 77.618 C 121.719 73.823, 116.560 70.620, 113.912 71.313 C 112.521 71.677, 111.190 70.805, 109.245 68.255 C 103.771 61.078, 90.165 57.746, 82.256 61.645 M 111 63.500 C 112.638 65.243, 114.408 66, 116.849 66 L 120.349 66 118 63.500 C 116.362 61.757, 114.592 61, 112.151 61 L 108.651 61 111 63.500 M 126.736 74.178 C 129.142 77.816, 129.507 79.366, 129.557 86.152 C 129.588 90.439, 129.904 94.238, 130.260 94.593 C 130.616 94.949, 132.007 94.964, 133.352 94.626 C 135.305 94.136, 136.042 92.992, 137.012 88.948 C 138.049 84.627, 137.984 83.246, 136.568 79.538 C 134.245 73.457, 130.790 70, 127.034 70 L 123.972 70 126.736 74.178 M 106.880 94.956 C 99.430 99.891, 96.170 108.032, 98.079 116.934 L 99.123 121.799 102.847 120.209 L 106.570 118.618 106.172 112.359 C 105.677 104.579, 108.438 98.133, 113.839 94.463 L 117.464 92 114.404 92 C 112.686 92, 109.384 93.297, 106.880 94.956 M 125.274 106.093 C 120.607 108.403, 117.184 113.094, 116.332 118.344 C 115.790 121.683, 115.636 121.782, 110.378 122.219 C 97.014 123.327, 88.062 139.152, 89.288 159.500 C 90.223 175.012, 93.204 180.978, 104.842 190.630 C 114.422 198.574, 115.756 199.051, 111.630 193.053 C 102.017 179.077, 100.254 159.843, 107.271 145.500 C 110.379 139.148, 113.817 135.134, 117.960 133.020 C 121.234 131.350, 121.978 131.268, 122.973 132.467 C 123.915 133.602, 123.519 134.197, 120.933 135.534 C 110.615 140.870, 104.454 156.908, 106.978 171.867 C 107.621 175.683, 109.418 181.491, 110.971 184.775 C 114.411 192.048, 124.813 203.308, 132.152 207.701 C 140.924 212.953, 141.609 212.840, 137.071 206.892 C 134.808 203.927, 132.708 200.600, 132.405 199.500 C 132.101 198.400, 129.894 196.049, 127.501 194.275 C 124.441 192.006, 122.163 189.044, 119.825 184.291 C 116.668 177.874, 116.500 176.974, 116.501 166.516 C 116.503 156.882, 116.799 154.935, 118.862 151 C 124.900 139.479, 134.900 134.337, 146.060 137.014 C 154.766 139.103, 160.527 146.854, 158.106 153.222 C 157.257 155.455, 157.415 155.846, 159.314 156.209 C 162.960 156.906, 167.751 155.132, 170.035 152.238 C 172.904 148.604, 172.366 141.082, 168.979 137.477 C 166.909 135.274, 166.803 134.734, 167.953 132.260 C 171.499 124.634, 170.943 118.757, 166.198 113.728 C 162.149 109.435, 157.083 108.315, 151.449 110.466 L 146.832 112.230 143.666 109.249 C 140.433 106.205, 135.362 103.999, 131.601 104.001 C 130.445 104.001, 127.599 104.943, 125.274 106.093 M 146.441 105.935 C 147.880 107.524, 148.615 107.677, 150.565 106.789 C 153.766 105.330, 152.679 104, 148.286 104 C 144.794 104, 144.741 104.056, 146.441 105.935 M 169 109.398 C 169 109.617, 170.120 111.754, 171.488 114.148 C 174.298 119.064, 174.782 126.468, 172.622 131.500 C 171.483 134.152, 171.570 134.821, 173.364 137.263 C 176.358 141.335, 176.255 149.805, 173.162 153.992 C 171.876 155.733, 170.988 157.321, 171.188 157.522 C 172.070 158.404, 178.218 153.479, 179.621 150.767 C 181.746 146.657, 181.579 139.646, 179.262 135.719 C 177.535 132.792, 177.490 132.165, 178.782 128.999 C 181.941 121.258, 177.733 109, 171.918 109 C 170.313 109, 169 109.179, 169 109.398 M 299.232 143 C 299.232 144.925, 299.438 145.713, 299.689 144.750 C 299.941 143.787, 299.941 142.213, 299.689 141.250 C 299.438 140.287, 299.232 141.075, 299.232 143 M 129.259 143.927 C 121.014 149.900, 116.963 164.497, 120.337 176.072 C 121.992 181.747, 127.288 191, 128.881 191 C 130.364 191, 130.773 180.778, 129.403 177.962 C 124.222 167.316, 126.937 149.128, 134.607 143.095 C 139.002 139.638, 134.134 140.396, 129.259 143.927 M 300.286 156.500 C 300.294 159.250, 300.488 160.256, 300.718 158.736 C 300.947 157.216, 300.941 154.966, 300.704 153.736 C 300.467 152.506, 300.279 153.750, 300.286 156.500 M 299.286 169.500 C 299.294 172.250, 299.488 173.256, 299.718 171.736 C 299.947 170.216, 299.941 167.966, 299.704 166.736 C 299.467 165.506, 299.279 166.750, 299.286 169.500 M 156.333 167.184 C 154.194 168.218, 154.210 168.277, 157.575 171.642 C 159.839 173.906, 161.198 176.386, 161.620 179.026 C 162.332 183.475, 162.629 183.648, 165.777 181.443 C 169.542 178.806, 167.888 171.136, 162.783 167.561 C 160.235 165.776, 159.350 165.724, 156.333 167.184 M 198.738 171.250 C 197.240 172.389, 197.309 172.746, 199.521 175.275 C 201.647 177.706, 202.198 177.893, 203.974 176.784 C 206.483 175.217, 206.538 173.797, 204.171 171.655 C 201.981 169.673, 200.917 169.593, 198.738 171.250 M 142.418 172.969 C 139.294 174.233, 135.185 179.599, 134.015 183.944 C 131.587 192.962, 137.439 205.056, 147 210.780 C 156.058 216.204, 161.803 217.503, 176.500 217.454 C 193.617 217.396, 201.584 215.181, 221.589 204.916 C 237.300 196.854, 244.890 194.022, 250.932 193.968 C 256.833 193.916, 258.248 192.112, 257.847 185.152 C 257.657 181.859, 257.839 178.827, 258.251 178.416 C 258.663 178.004, 259 177.288, 259 176.825 C 259 175.339, 255.146 178.335, 254.658 180.200 C 254.326 181.470, 253.203 182.010, 250.844 182.035 C 240.881 182.140, 228.292 186.957, 212.049 196.881 C 201.426 203.371, 193.099 206.005, 181 206.705 C 169.193 207.388, 161.559 205.897, 155.287 201.681 C 149.014 197.466, 146 192.851, 146 187.463 C 146 182.273, 148.156 179.385, 153.360 177.604 L 157.219 176.282 154.921 174.141 C 152.498 171.884, 146.493 171.321, 142.418 172.969 M 184.646 178.452 C 183.191 179.801, 182 181.660, 182 182.584 C 182 183.508, 181.045 185.810, 179.877 187.699 C 177.389 191.725, 177.726 197.934, 180.605 201.116 C 182.461 203.167, 182.833 203.159, 193.239 200.855 L 197.979 199.806 193.443 195.653 C 190.123 192.613, 188.754 190.510, 188.332 187.804 C 187.640 183.366, 188.443 179.700, 190.573 177.570 C 193.355 174.788, 187.690 175.631, 184.646 178.452 M 296.708 185.177 C 295.723 190.305, 293.606 198.308, 292.004 202.963 C 290.402 207.617, 289.243 211.576, 289.427 211.760 C 290.754 213.087, 299.417 181.764, 298.808 177.840 C 298.639 176.748, 297.694 180.050, 296.708 185.177 M 60.074 178.893 C 56.560 179.852, 56.454 181.641, 59.869 182.324 C 66.381 183.626, 78.484 190.751, 91.169 200.749 C 112.838 217.829, 120.970 222.725, 135.603 227.502 C 144.537 230.418, 147.697 230.601, 150.862 228.384 C 153.689 226.404, 153.018 225.729, 146 223.494 C 130.645 218.603, 119.525 212.128, 100.500 197.002 C 94.450 192.192, 87.250 186.894, 84.500 185.228 C 76.346 180.288, 65.381 177.444, 60.074 178.893 M 193.220 180.250 C 192.180 181.518, 191.676 184.135, 191.885 187.173 C 192.052 189.605, 196.886 195, 198.898 195 C 199.844 195, 201.461 194.383, 202.492 193.630 C 204.269 192.330, 204.175 192.093, 200.683 189.026 C 197.797 186.492, 197 185.058, 197 182.396 C 197 178.864, 195.196 177.839, 193.220 180.250 M 152.280 182.020 C 149.028 183.329, 148.288 187.649, 150.594 191.859 C 152.725 195.749, 155.774 198.238, 161.070 200.411 C 164.327 201.748, 164.886 201.715, 167.457 200.028 L 170.274 198.180 165.997 195.998 C 159.925 192.901, 156 188.298, 156 184.277 C 156 180.785, 155.740 180.628, 152.280 182.020 M 257.494 193.006 C 256.496 194.110, 255.938 195.271, 256.254 195.587 C 257.204 196.538, 261 194.040, 261 192.465 C 261 190.427, 259.638 190.637, 257.494 193.006 M 55.078 197.965 L 51.656 199.713 55.304 200.397 C 60.888 201.445, 68.119 205.657, 84.247 217.256 C 100.715 229.100, 113.035 236.799, 121.537 240.559 C 128.664 243.711, 143.365 248.011, 146.862 247.967 C 149.193 247.937, 154 245.042, 154 243.667 C 154 243.386, 149.613 241.787, 144.250 240.115 C 127.384 234.857, 115.930 228.417, 90 209.613 C 71.542 196.227, 63.639 193.591, 55.078 197.965 M 259.985 210.046 L 257.500 211.956 259.781 211.978 C 261.036 211.990, 262.329 211.306, 262.655 210.457 C 263.566 208.083, 262.711 207.952, 259.985 210.046 M 262.500 229 C 259.150 231.218, 259.585 231.602, 263.453 229.839 C 264.854 229.201, 266 228.301, 266 227.839 C 266 226.705, 265.929 226.729, 262.500 229 M 185.633 231.460 C 183.460 233.204, 182.989 234.159, 183.687 235.404 C 184.504 236.865, 184.860 236.778, 186.894 234.613 C 188.152 233.274, 189.028 231.499, 188.841 230.669 C 188.564 229.443, 187.960 229.592, 185.633 231.460 M 172.760 249.475 C 171 251.024, 170.242 252.466, 170.640 253.505 C 171.167 254.878, 171.697 254.706, 174.131 252.375 C 176.817 249.801, 177.944 246.960, 176.250 247.032 C 175.838 247.049, 174.267 248.149, 172.760 249.475" stroke="none" fill="black" fill-rule="evenodd"/>
</svg>